<?xml version="1.0" encoding="utf-8"?>
<svg version="1.1" xmlns="http://www.w3.org/2000/svg" style="display: block;" viewBox="0 0 2048 2048" width="1024" height="1024" preserveAspectRatio="none">
  <g transform="matrix(1, 0, 0, 1, -82.24028, -6.95002)">
    <path fill="rgb(19,131,202)" d="M 882.027 455.005 C 892.054 454.514 903.257 456.176 912.367 460.554 C 955.036 481.061 996.223 507.153 1037.4 530.657 L 1262.67 658.487 L 1459.6 770.051 C 1491.19 787.877 1534.29 808.797 1562.56 829.47 C 1577.07 840.069 1583.22 852.386 1585.69 869.628 C 1590.75 905.298 1587.76 944.491 1587.78 980.574 L 1587.84 1188.13 L 1587.91 1474.25 C 1587.95 1521.79 1590.79 1574.22 1587.19 1621.31 C 1586.17 1634.51 1583.09 1644.87 1574.93 1655.34 C 1569.26 1662.63 1562.9 1667.47 1555.15 1672.31 C 1517.79 1695.61 1478.05 1716.29 1439.8 1738.18 L 1229.7 1859.46 L 1007.01 1987.44 C 978.756 2003.56 951.058 2021.56 922.266 2036.57 C 911.063 2042.41 900.929 2046.01 888.425 2047.72 C 876.319 2048.29 864.408 2045.57 853.513 2040.35 C 826.067 2027.24 799.637 2010.4 773.152 1995.36 L 603.994 1898.18 L 364.517 1759.89 C 318.909 1733.7 272.465 1708.42 227.481 1681.19 C 208.965 1670 190.615 1655.55 185.87 1633.1 C 180.953 1609.83 184.253 1575.51 184.273 1551.01 L 184.351 1381.9 L 184.335 1053.71 C 184.273 997.839 181.638 940.7 184.434 884.996 C 185.007 873.594 186.548 862.441 193.015 852.709 C 198.294 844.766 205.777 837.319 213.765 832.111 C 239.044 815.64 266.533 801.476 292.767 786.521 L 438.746 703.044 L 700.081 553.115 L 791.437 500.44 C 819.252 484.489 850.619 461.948 882.027 455.005 Z M 837.344 1919.99 C 840.139 1872.35 838.148 1823.74 838.154 1775.98 L 838.158 1511.49 L 838.109 1356.9 C 838.093 1330.35 840.643 1301.02 836.24 1274.93 C 818.634 1261.71 799.057 1251.29 780.006 1240.34 L 699.773 1194.21 L 435.095 1042.69 L 321.323 978.146 C 307.644 970.473 291.601 958.954 276.955 954.07 C 273.573 1061.99 276.331 1170.92 276.329 1278.91 L 276.361 1475.91 C 276.374 1511.31 275.545 1546.95 276.721 1582.34 C 276.941 1589.03 276.721 1597.94 279.853 1603.89 C 299.451 1618.54 323.285 1629.94 344.614 1642.05 L 467.029 1711.61 C 586.413 1779.52 704.76 1849.88 825.249 1915.79 C 829.302 1917.99 832.612 1920.15 837.344 1919.99 Z M 333.742 874.689 C 367.096 896.927 403.992 915.57 438.896 935.374 L 624.13 1041.11 L 791.088 1136.59 C 819.205 1152.64 847.74 1171.59 877.196 1184.73 C 882.372 1187.04 886.327 1187.18 891.911 1186.21 C 936.983 1162.01 980.903 1135.6 1025.38 1110.31 L 1290.57 959.162 C 1341.15 930.081 1391.42 898.555 1443.17 871.768 C 1323.2 802.279 1202.82 733.495 1082.03 665.419 L 959.465 595.065 C 939.188 583.559 918.885 571.236 897.927 561.035 C 892.755 558.517 888.621 557.139 882.737 557.302 C 859.409 569.164 836.935 583.003 814.297 596.133 L 699.193 662.616 L 468.658 796.062 C 423.685 822.213 378.238 847.734 333.742 874.689 Z" style=""/>
    <path fill="rgb(32,159,227)" d="M 1494.37 949.88 C 1497.56 967.032 1495.26 988.388 1495.23 1005.97 L 1495.03 1126.03 C 1495.06 1283.46 1492.86 1441.2 1495.79 1598.6 L 1110.67 1822.54 C 1049.83 1857.18 989.378 1892.5 929.343 1928.51 C 924.625 1920.36 927.197 1335.22 927.072 1274.22 C 992.589 1239.61 1056.5 1200.53 1120.51 1163.15 L 1343.33 1035.58 C 1393.61 1006.93 1443.41 977.311 1494.37 949.88 Z" style=""/>
    <path fill="rgb(81,85,88)" d="M 702.57 364.902 C 717.995 342.435 726.459 313.673 739.033 289.212 C 778.874 211.085 838.017 144.432 910.849 95.581 C 1028.08 15.714 1150.02 -0.365 1287.12 25.484 C 1417.38 57.405 1524.36 132.826 1594.54 247.65 C 1614.55 280.384 1627.66 315.093 1642.01 350.432 C 1666.74 351.367 1691.26 352.136 1715.69 356.327 C 1797.31 370.319 1872.69 414.124 1928.68 474.597 C 1950.41 498.416 1969.21 524.777 1984.6 553.101 C 2004.93 592.632 2019.38 634.369 2025.44 678.506 C 2039.97 779.566 2013.44 882.234 1951.8 963.618 C 1898.37 1033.97 1822.25 1088.05 1735.56 1108.08 C 1713.1 1113.26 1690.75 1114.37 1668.05 1117.44 C 1667.35 1062.12 1668 1006.72 1668.01 951.398 C 1668.04 911.737 1672.77 862.867 1661.83 825.104 C 1656.34 806.162 1645.67 789.364 1630.16 777.01 C 1608.29 759.576 1576.73 745.359 1552.2 731.592 C 1509.31 707.351 1466.57 682.861 1423.97 658.122 L 1104.24 474.89 C 1048.05 442.676 992.372 409.178 935.537 378.146 C 917.788 368.455 896.554 357.102 875.709 361.414 C 851.447 366.435 715.019 450.597 683.284 469.121 L 446.98 606.156 C 422.525 620.492 372.24 654.927 347.268 661.814 C 346.728 661.963 346.18 662.088 345.635 662.224 C 349.256 651.255 352.983 640.315 357.522 629.685 C 401.995 525.539 490.309 433.083 597.602 394.407 C 616.785 387.698 636.325 382.054 656.131 377.498 C 671.007 373.977 686.646 371.586 700.775 365.682 C 701.378 365.43 701.973 365.163 702.57 364.902 Z" style=""/>
  </g>
</svg>