<svg xmlns="http://www.w3.org/2000/svg" version="1.1" style="display: block;" viewBox="0 0 2048 2048" width="1024" height="1024" preserveAspectRatio="none">
<path transform="translate(0,0)" fill="#515558" d="M 932.141 628.187 C 938.571 627.872 945.756 628.938 951.599 631.746 C 978.965 644.898 1005.38 661.632 1031.79 676.707 L 1176.27 758.69 L 1302.57 830.243 C 1322.83 841.676 1350.47 855.092 1368.6 868.351 C 1377.91 875.149 1381.86 883.049 1383.43 894.106 C 1386.68 916.983 1384.77 942.12 1384.78 965.262 L 1384.82 1098.38 L 1384.86 1281.88 C 1384.88 1312.37 1386.71 1346 1384.4 1376.2 C 1383.75 1384.66 1381.77 1391.31 1376.54 1398.03 C 1372.9 1402.7 1368.82 1405.81 1363.85 1408.91 C 1339.89 1423.85 1314.4 1437.12 1289.87 1451.16 L 1155.12 1528.94 L 1012.3 1611.02 C 994.178 1621.36 976.414 1632.9 957.947 1642.53 C 950.762 1646.27 944.263 1648.58 936.244 1649.68 C 928.48 1650.04 920.84 1648.3 913.853 1644.96 C 896.25 1636.55 879.299 1625.74 862.313 1616.1 L 753.823 1553.78 L 600.233 1465.08 C 570.983 1448.28 541.196 1432.06 512.345 1414.61 C 500.47 1407.42 488.701 1398.16 485.658 1383.76 C 482.504 1368.84 484.62 1346.83 484.633 1331.12 L 484.683 1222.65 L 484.673 1012.17 C 484.633 976.335 482.943 939.689 484.737 903.963 C 485.105 896.65 486.092 889.497 490.24 883.256 C 493.626 878.162 498.425 873.385 503.549 870.046 C 519.762 859.482 537.391 850.397 554.216 840.806 L 647.841 787.267 L 815.449 691.11 L 874.04 657.327 C 891.879 647.096 911.997 632.64 932.141 628.187 z M 903.483 1567.76 C 905.276 1537.21 903.998 1506.03 904.002 1475.4 L 904.005 1305.77 L 903.973 1206.62 C 903.963 1189.59 905.599 1170.78 902.775 1154.05 C 891.483 1145.57 878.927 1138.89 866.709 1131.86 L 815.251 1102.28 L 645.499 1005.1 L 572.531 963.705 C 563.758 958.784 553.468 951.396 544.075 948.264 C 541.906 1017.48 543.675 1087.34 543.674 1156.6 L 543.694 1282.94 C 543.703 1305.65 543.171 1328.51 543.925 1351.21 C 544.067 1355.5 543.925 1361.22 545.934 1365.03 C 558.503 1374.42 573.79 1381.73 587.469 1389.5 L 665.98 1434.12 C 742.548 1477.67 818.449 1522.79 895.725 1565.06 C 898.325 1566.48 900.448 1567.86 903.483 1567.76 z M 580.496 897.353 C 601.887 911.615 625.551 923.572 647.936 936.273 L 766.737 1004.09 L 873.817 1065.32 C 891.849 1075.62 910.151 1087.77 929.041 1096.2 C 932.361 1097.68 934.898 1097.77 938.479 1097.15 C 967.387 1081.63 995.555 1064.69 1024.08 1048.47 L 1194.16 951.53 C 1226.6 932.878 1258.85 912.659 1292.03 895.479 C 1215.08 850.912 1137.88 806.797 1060.41 763.136 L 981.805 718.015 C 968.8 710.635 955.779 702.732 942.338 696.19 C 939.021 694.575 936.37 693.691 932.596 693.795 C 917.634 701.403 903.221 710.279 888.702 718.699 L 814.879 761.339 L 667.025 846.925 C 638.181 863.697 609.033 880.065 580.496 897.353 z"/>
<path transform="translate(0,0)" fill="#515558" d="M 1324.87 945.577 C 1326.91 956.577 1325.44 970.274 1325.42 981.55 L 1325.3 1058.55 C 1325.31 1159.52 1323.9 1260.69 1325.78 1361.64 L 1078.78 1505.26 C 1039.76 1527.47 1000.99 1550.13 962.486 1573.22 C 959.461 1568 961.11 1192.72 961.03 1153.59 C 1003.05 1131.4 1044.04 1106.33 1085.09 1082.36 L 1228 1000.54 C 1260.25 982.164 1292.19 963.17 1324.87 945.577 z"/>
<path transform="translate(0,0)" fill="rgb(81,85,88)" d="M 817.045 570.399 C 826.938 555.99 832.366 537.543 840.431 521.856 C 865.982 471.748 903.914 429 950.626 397.669 C 1025.81 346.446 1104.02 336.133 1191.94 352.712 C 1275.49 373.185 1344.1 421.556 1389.11 495.199 C 1401.94 516.193 1410.35 538.454 1419.56 561.119 C 1435.42 561.718 1451.14 562.211 1466.82 564.9 C 1519.16 573.873 1567.51 601.968 1603.42 640.752 C 1617.35 656.029 1629.4 672.935 1639.28 691.101 C 1652.32 716.454 1661.58 743.222 1665.48 771.53 C 1674.79 836.346 1657.78 902.192 1618.24 954.387 C 1583.97 999.506 1535.16 1034.19 1479.56 1047.04 C 1465.15 1050.36 1450.82 1051.07 1436.26 1053.04 C 1435.81 1017.56 1436.23 982.032 1436.24 946.55 C 1436.25 921.113 1439.29 889.771 1432.27 865.551 C 1428.75 853.403 1421.9 842.629 1411.96 834.706 C 1397.93 823.524 1377.69 814.406 1361.96 805.577 C 1334.45 790.03 1307.04 774.323 1279.72 758.457 L 1074.66 640.94 C 1038.62 620.279 1002.91 598.795 966.459 578.893 C 955.076 572.678 941.457 565.396 928.088 568.162 C 912.528 571.382 825.029 625.36 804.676 637.24 L 653.121 725.128 C 637.437 734.322 605.186 756.408 589.171 760.825 C 588.824 760.92 588.473 761 588.123 761.087 C 590.446 754.053 592.836 747.036 595.747 740.219 C 624.27 673.424 680.91 614.127 749.724 589.322 C 762.027 585.019 774.558 581.399 787.261 578.478 C 796.802 576.219 806.832 574.686 815.894 570.899 C 816.28 570.738 816.662 570.566 817.045 570.399 z"/>
</svg>
